<?xml version="1.0" encoding="utf-8"?>
<!-- Generator: Adobe Illustrator 25.0.0, SVG Export Plug-In . SVG Version: 6.00 Build 0)  -->
<svg version="1.1" id="Layer_1" xmlns="http://www.w3.org/2000/svg" xmlns:xlink="http://www.w3.org/1999/xlink" x="0px" y="0px"
	 viewBox="0 0 1920 1080" style="enable-background:new 0 0 1920 1080;" xml:space="preserve">
<style type="text/css">
	.st0{fill:#FFFF6C;}
	.st1{fill:none;}
	.st2{fill:none;stroke:#FFFF6C;stroke-width:10;stroke-miterlimit:10;}
	.st3{font-family:'MyriadPro-Regular';}
	.st4{font-size:128px;}
</style>
<g>
	<path class="st0" d="M1501.9,355c12.2,0,22.1,9.9,22.1,22.1v237.8c0,12.2-9.9,22.1-22.1,22.1H492.1c-12.2,0-22.1-9.9-22.1-22.1
		V377.1c0-12.2,9.9-22.1,22.1-22.1H1501.9 M1501.9,345H492.1c-17.7,0-32.1,14.4-32.1,32.1v237.8c0,17.7,14.4,32.1,32.1,32.1h1009.8
		c17.7,0,32.1-14.4,32.1-32.1V377.1C1534,359.4,1519.6,345,1501.9,345L1501.9,345z"/>
</g>
<rect x="631" y="444.9" class="st1" width="769.6" height="144.3"/>
<text transform="matrix(1 0 0 1 631.0127 535.8154)"><tspan x="0" y="0" class="st2 st3 st4">PHARMA</tspan><tspan x="480" y="0" class="st2 st3 st4">-</tspan></text>
</svg>
